<svg width="52" height="52" viewBox="0 0 52 52" fill="none" xmlns="http://www.w3.org/2000/svg">
<g filter="url(#filter0_d_8_2852)">
<circle cx="26" cy="22" r="22" fill="#F2F8F7"/>
<path d="M36 24L33.061 21.8839C31.5338 20.7843 29.4467 20.898 28.0479 22.1569L23.9521 25.8431C22.5533 27.102 20.4662 27.2157 18.939 26.1161L16 24M20 32H32C34.2091 32 36 30.2091 36 28V16C36 13.7909 34.2091 12 32 12H20C17.7909 12 16 13.7909 16 16V28C16 30.2091 17.7909 32 20 32ZM25 18.5C25 19.8807 23.8807 21 22.5 21C21.1193 21 20 19.8807 20 18.5C20 17.1193 21.1193 16 22.5 16C23.8807 16 25 17.1193 25 18.5Z" stroke="#797C7B" stroke-width="1.5" stroke-linecap="round"/>
</g>
<defs>
<filter id="filter0_d_8_2852" x="0" y="0" width="52" height="52" filterUnits="userSpaceOnUse" color-interpolation-filters="sRGB">
<feFlood flood-opacity="0" result="BackgroundImageFix"/>
<feColorMatrix in="SourceAlpha" type="matrix" values="0 0 0 0 0 0 0 0 0 0 0 0 0 0 0 0 0 0 127 0" result="hardAlpha"/>
<feOffset dy="4"/>
<feGaussianBlur stdDeviation="2"/>
<feComposite in2="hardAlpha" operator="out"/>
<feColorMatrix type="matrix" values="0 0 0 0 0 0 0 0 0 0 0 0 0 0 0 0 0 0 0.25 0"/>
<feBlend mode="normal" in2="BackgroundImageFix" result="effect1_dropShadow_8_2852"/>
<feBlend mode="normal" in="SourceGraphic" in2="effect1_dropShadow_8_2852" result="shape"/>
</filter>
</defs>
</svg>
